<svg width="89" height="500" viewBox="0 0 89 500" fill="none" xmlns="http://www.w3.org/2000/svg">
<g opacity="0.02" clip-path="url(#clip0_529_9235)">
<path d="M20.3 98.6001H-13V131.9H20.3V98.6001Z" fill="#DDDFE1"/>
<path d="M22.3 198.6H-11V231.9H22.3V198.6Z" fill="#DDDFE1"/>
<path d="M22.3 198.6H-11V231.9H22.3V198.6Z" fill="#DDDFE1"/>
<path d="M20.3 165.3H-13V198.6H20.3V165.3Z" fill="#FBFBFB"/>
<path d="M22.3 265.3H-11V298.6H22.3V265.3Z" fill="white"/>
<path d="M22.3 265.3H-11V298.6H22.3V265.3Z" fill="white"/>
<path d="M89.0001 65.3H55.7001V98.6H89.0001V65.3Z" fill="#FBFBFB"/>
<path d="M89.0001 265.3H55.7001V298.6H89.0001V265.3Z" fill="#DDDFE1"/>
<path d="M89.0001 265.3H55.7001V298.6H89.0001V265.3Z" fill="#DDDFE1"/>
<path d="M89.0001 198.6H55.7001V231.9H89.0001V198.6Z" fill="white"/>
<path d="M89.0001 198.6H55.7001V231.9H89.0001V198.6Z" fill="white"/>
<path d="M89.0001 165.3H55.7001V198.6H89.0001V165.3Z" fill="#EDEDED"/>
<path d="M90.0003 165.3H56.7003V198.6H90.0003V165.3Z" fill="#EDEDED"/>
<path d="M55.6001 231.9H22.3V265.2H55.6001V231.9Z" fill="#FBFBFB"/>
<path d="M55.6001 31.9001H22.3V65.2001H55.6001V31.9001Z" fill="#DDDFE1"/>
<path d="M55 132H20V165H55V132Z" fill="#E0E0E0"/>
<path d="M55.6001 198.6H22.3V231.9H55.6001V198.6Z" fill="white"/>
<path d="M55.6001 198.6H22.3V231.9H55.6001V198.6Z" fill="white"/>
<path d="M22.3 331.9H-11V365.2H22.3V331.9Z" fill="#E0E0E0"/>
<path d="M22.3 331.9H-11V365.2H22.3V331.9Z" fill="#E0E0E0"/>
<path d="M22.3 398.6H-11V431.9H22.3V398.6Z" fill="#DDDFE1"/>
<path d="M22.3 398.6H-11V431.9H22.3V398.6Z" fill="#DDDFE1"/>
<path d="M22.3 431.9H-11V465.2H22.3V431.9Z" fill="white"/>
<path d="M22.3 431.9H-11V465.2H22.3V431.9Z" fill="white"/>
<path d="M22.3 498.6H-11V515.5H22.3V498.6Z" fill="#DDDFE1"/>
<path d="M22.3 498.6H-11V515.5H22.3V498.6Z" fill="#DDDFE1"/>
<path d="M89.0001 331.9H55.7001V365.2H89.0001V331.9Z" fill="white"/>
<path d="M89.0001 331.9H55.7001V365.2H89.0001V331.9Z" fill="white"/>
<path d="M89.0001 398.6H55.7001V431.9H89.0001V398.6Z" fill="white"/>
<path d="M89.0001 398.6H55.7001V431.9H89.0001V398.6Z" fill="white"/>
<path d="M89.0001 498.6H55.7001V515.5H89.0001V498.6Z" fill="white"/>
<path d="M89.0001 498.6H55.7001V515.5H89.0001V498.6Z" fill="white"/>
<path d="M89.0001 465.3H55.7001V498.6H89.0001V465.3Z" fill="#EDEDED"/>
<path d="M89.0001 465.3H55.7001V498.6H89.0001V465.3Z" fill="#EDEDED"/>
<path d="M22.3 298.6H-11V331.9H22.3V298.6Z" fill="#DDDFE1"/>
<path d="M22.3 298.6H-11V331.9H22.3V298.6Z" fill="#DDDFE1"/>
<path d="M55.6001 298.6H22.3V331.9H55.6001V298.6Z" fill="white"/>
<path d="M55.6001 365.3H22.3V398.6H55.6001V365.3Z" fill="#F4F4F4"/>
<path d="M55.6001 365.3H22.3V398.6H55.6001V365.3Z" fill="#F4F4F4"/>
<path d="M55.6001 431.9H22.3V465.2H55.6001V431.9Z" fill="#E0E0E0"/>
<path d="M55.6001 431.9H22.3V465.2H55.6001V431.9Z" fill="#E0E0E0"/>
<path d="M55.6001 398.6H22.3V431.9H55.6001V398.6Z" fill="white"/>
<path d="M55.6001 398.6H22.3V431.9H55.6001V398.6Z" fill="white"/>
<path d="M55.6001 465.3H22.3V498.6H55.6001V465.3Z" fill="white"/>
<path d="M55.6001 465.3H22.3V498.6H55.6001V465.3Z" fill="white"/>
<path d="M55.6001 498.6H22.3V515.5H55.6001V498.6Z" fill="white"/>
<path d="M55.6001 498.6H22.3V515.5H55.6001V498.6Z" fill="white"/>
<path d="M-77.7 198.6L94.5001 197.6V199.6L-77.7 198.6Z" fill="#E9EEF2"/>
<path d="M-111 398.6L94.5 397.6V399.6L-111 398.6Z" fill="#E9EEF2"/>
<path d="M-111 398.6L94.5 397.6V399.6L-111 398.6Z" fill="#E9EEF2"/>
<path d="M-111 431.9L94.5 430.9V432.9L-111 431.9Z" fill="#E9EEF2"/>
<path d="M-111 431.9L94.5 430.9V432.9L-111 431.9Z" fill="#E9EEF2"/>
</g>
<defs>
<clipPath id="clip0_529_9235">
<rect width="89" height="500" fill="white"/>
</clipPath>
</defs>
</svg>
