<svg width="51" height="50" viewBox="0 0 51 50" fill="none" xmlns="http://www.w3.org/2000/svg">
<path fill-rule="evenodd" clip-rule="evenodd" d="M25 48C37.7025 48 48 37.7025 48 25C48 12.2975 37.7025 2 25 2C12.2975 2 2 12.2975 2 25C2 37.7025 12.2975 48 25 48ZM25 49C38.2548 49 49 38.2548 49 25C49 11.7452 38.2548 1 25 1C11.7452 1 1 11.7452 1 25C1 38.2548 11.7452 49 25 49Z" fill="#D1E4FF"/>
<g clip-path="url(#clip0_529_9810)">
<path d="M30.9 35.8001C29.8 35.8001 28.8 35.5001 27.9 34.9001C23 31.6001 18.9 27.5001 15.7 22.7001C14.9 21.6001 14.6 20.3001 14.8 19.0001C14.9 17.7001 15.5 16.5001 16.4 15.6001L17.1 14.9001C18 14.0001 19.6 14.0001 20.5 14.9001L23.4 17.8001C23.6 18.0001 23.8 18.3001 23.9 18.6001C24 18.9001 24.1 19.2001 24.1 19.5001C24.1 19.8001 24 20.1001 23.9 20.4001C23.8 20.7001 23.6 21.0001 23.4 21.2001C23.2 21.4001 23.1 21.6001 23.1 21.9001C23.1 22.2001 23.2 22.4001 23.4 22.5001L28 27.1001C28.3 27.4001 28.9 27.4001 29.3 27.1001C29.5 26.9001 29.8 26.7001 30.1 26.6001C30.7 26.4001 31.3 26.4001 31.9 26.6001C32.2 26.7001 32.5 26.9001 32.7 27.1001L35.6 30.0001C35.8 30.2001 36 30.5001 36.1 30.8001C36.2 31.1001 36.3 31.4001 36.3 31.7001C36.3 32.0001 36.2 32.3001 36.1 32.6001C36 32.9001 35.8 33.2001 35.6 33.4001L34.9 34.1001C34 35.0001 32.8 35.6001 31.5 35.7001C31.3 35.7001 31.1 35.8001 30.9 35.8001ZM18.8 15.8001C18.6 15.8001 18.3 15.8001 18.2 16.0001L17.5 16.7001C16.8 17.4001 16.4 18.3001 16.3 19.2001C16.2 20.1001 16.4 21.1001 16.9 21.9001C20 26.5001 24 30.5001 28.6 33.6001C29.4 34.1001 30.3 34.3001 31.3 34.2001C32.2 34.1001 33.1 33.7001 33.8 33.0001L34.5 32.3001C34.6 32.2001 34.6 32.1001 34.7 32.0001C34.7 31.9001 34.8 31.8001 34.8 31.7001C34.8 31.6001 34.8 31.5001 34.7 31.4001C34.7 31.3001 34.6 31.2001 34.5 31.1001L31.6 28.2001C31.5 28.1001 31.4 28.1001 31.3 28.0001C31.1 27.9001 30.8 27.9001 30.6 28.0001C30.5 28.0001 30.4 28.1001 30.3 28.2001C29.4 29.1001 27.8 29.1001 26.9 28.2001L22.3 23.5001C21.9 23.1001 21.6 22.5001 21.6 21.9001C21.6 21.3001 21.8 20.7001 22.3 20.2001C22.4 20.1001 22.5 20.0001 22.5 19.9001C22.5 19.8001 22.6 19.7001 22.6 19.6001C22.6 19.5001 22.6 19.4001 22.5 19.3001C22.4 19.2001 22.4 19.0001 22.3 18.9001L19.4 16.0001C19.3 15.8001 19 15.8001 18.8 15.8001Z" fill="#0E3493"/>
</g>
<defs>
<clipPath id="clip0_529_9810">
<rect width="23" height="22" fill="white" transform="translate(14 14)"/>
</clipPath>
</defs>
</svg>
