<svg width="51" height="50" viewBox="0 0 51 50" fill="none" xmlns="http://www.w3.org/2000/svg">
<path fill-rule="evenodd" clip-rule="evenodd" d="M25 48C37.7025 48 48 37.7025 48 25C48 12.2975 37.7025 2 25 2C12.2975 2 2 12.2975 2 25C2 37.7025 12.2975 48 25 48ZM25 49C38.2548 49 49 38.2548 49 25C49 11.7452 38.2548 1 25 1C11.7452 1 1 11.7452 1 25C1 38.2548 11.7452 49 25 49Z" fill="#D1E4FF"/>
<path fill-rule="evenodd" clip-rule="evenodd" d="M16.1562 15.5C15.9822 15.5 15.8153 15.5691 15.6922 15.6922C15.5691 15.8153 15.5 15.9822 15.5 16.1562V23.3628C15.4996 26.1768 16.4959 28.9 18.3122 31.0494C20.1011 33.1664 22.5717 34.5919 25.2969 35.0824C28.0221 34.5919 30.4926 33.1664 32.2816 31.0494C34.0978 28.9 35.0941 26.1769 35.0938 23.3629V16.1562C35.0938 15.9822 35.0246 15.8153 34.9015 15.6922C34.7785 15.5691 34.6115 15.5 34.4375 15.5H16.1562ZM14.6316 14.6316C15.0359 14.2272 15.5844 14 16.1562 14H34.4375C35.0094 14 35.5578 14.2272 35.9622 14.6316C36.3666 15.0359 36.5938 15.5844 36.5938 16.1562V23.3627C36.5942 26.5312 35.4723 29.5974 33.4273 32.0175C31.3822 34.4376 28.546 36.0552 25.4219 36.5833C25.3391 36.5972 25.2546 36.5972 25.1719 36.5833C22.0477 36.0552 19.2116 34.4376 17.1665 32.0175C15.1214 29.5974 13.9996 26.5313 14 23.3628V16.1562C14 15.5844 14.2272 15.0359 14.6316 14.6316ZM22.5292 19.3652C23.2632 18.6311 24.2588 18.2188 25.2969 18.2188C26.3349 18.2188 27.3305 18.6311 28.0645 19.3652C28.7986 20.0992 29.2109 21.0947 29.2109 22.1328C29.2109 23.1709 28.7986 24.1664 28.0645 24.9005C27.5394 25.4256 26.8805 25.7861 26.1679 25.9488C27.0471 26.0694 27.895 26.372 28.6561 26.8408C29.6661 27.4629 30.4835 28.3532 31.0172 29.4126C31.2035 29.7825 31.0547 30.2334 30.6848 30.4198C30.3149 30.6062 29.8639 30.4574 29.6776 30.0874C29.2689 29.2762 28.6429 28.5943 27.8695 28.1179C27.096 27.6415 26.2055 27.3893 25.2971 27.3893C24.3887 27.3893 23.4981 27.6415 22.7247 28.1179C21.9512 28.5943 21.3253 29.2762 20.9165 30.0874C20.7302 30.4574 20.2792 30.6062 19.9093 30.4198C19.5394 30.2334 19.3906 29.7825 19.5769 29.4126C20.1106 28.3532 20.928 27.4629 21.938 26.8408C22.699 26.372 23.5468 26.0695 24.426 25.9488C23.7134 25.7861 23.0544 25.4256 22.5292 24.9005C21.7952 24.1664 21.3828 23.1709 21.3828 22.1328C21.3828 21.0947 21.7952 20.0992 22.5292 19.3652ZM25.2969 19.7188C24.6566 19.7188 24.0426 19.9731 23.5899 20.4258C23.1372 20.8785 22.8828 21.4926 22.8828 22.1328C22.8828 22.7731 23.1372 23.3871 23.5899 23.8398C24.0426 24.2925 24.6566 24.5469 25.2969 24.5469C25.9371 24.5469 26.5512 24.2925 27.0039 23.8398C27.4566 23.3871 27.7109 22.7731 27.7109 22.1328C27.7109 21.4926 27.4566 20.8785 27.0039 20.4258C26.5512 19.9731 25.9371 19.7188 25.2969 19.7188Z" fill="#0E3493"/>
</svg>
