<svg width="51" height="50" viewBox="0 0 51 50" fill="none" xmlns="http://www.w3.org/2000/svg">
<path fill-rule="evenodd" clip-rule="evenodd" d="M25 48C37.7025 48 48 37.7025 48 25C48 12.2975 37.7025 2 25 2C12.2975 2 2 12.2975 2 25C2 37.7025 12.2975 48 25 48ZM25 49C38.2548 49 49 38.2548 49 25C49 11.7452 38.2548 1 25 1C11.7452 1 1 11.7452 1 25C1 38.2548 11.7452 49 25 49Z" fill="#D1E4FF"/>
<path fill-rule="evenodd" clip-rule="evenodd" d="M31.2614 15.5C31.4326 15.4999 31.5972 15.5668 31.7198 15.6863L34.4893 18.3893C34.552 18.4504 34.6019 18.5235 34.6359 18.6042C34.6699 18.6848 34.6875 18.7716 34.6875 18.8591V34.4375C34.6875 34.6115 34.6184 34.7785 34.4953 34.9015C34.3722 35.0246 34.2053 35.0938 34.0312 35.0938H17.1562C16.9822 35.0938 16.8153 35.0246 16.6922 34.9015C16.5691 34.7785 16.5 34.6115 16.5 34.4375V16.1563C16.5 15.9822 16.5691 15.8153 16.6922 15.6922C16.8153 15.5691 16.9822 15.5 17.1562 15.5L31.2614 15.5ZM32.767 14.6124C32.3641 14.2196 31.8236 13.9998 31.2609 14H17.1562C16.5844 14 16.0359 14.2272 15.6316 14.6316C15.2272 15.0359 15 15.5844 15 16.1563V34.4375C15 35.0094 15.2272 35.5578 15.6316 35.9622C16.0359 36.3666 16.5844 36.5938 17.1562 36.5938H34.0312C34.6031 36.5938 35.1516 36.3666 35.556 35.9622C35.9603 35.5578 36.1875 35.0094 36.1875 34.4375V18.859C36.1875 18.5712 36.1298 18.2864 36.018 18.0212C35.9062 17.7561 35.7424 17.516 35.5363 17.3151L32.767 14.6124ZM20.0107 21.0312C19.5965 21.0312 19.2607 21.367 19.2607 21.7812C19.2607 22.1955 19.5965 22.5312 20.0107 22.5312H31.2607C31.675 22.5312 32.0107 22.1955 32.0107 21.7812C32.0107 21.367 31.675 21.0312 31.2607 21.0312H20.0107ZM19.2607 26C19.2607 25.5858 19.5965 25.25 20.0107 25.25H31.2607C31.675 25.25 32.0107 25.5858 32.0107 26C32.0107 26.4142 31.675 26.75 31.2607 26.75H20.0107C19.5965 26.75 19.2607 26.4142 19.2607 26ZM20.0107 29.4688C19.5965 29.4688 19.2607 29.8045 19.2607 30.2188C19.2607 30.633 19.5965 30.9688 20.0107 30.9688H25.6357C26.05 30.9688 26.3857 30.633 26.3857 30.2188C26.3857 29.8045 26.05 29.4688 25.6357 29.4688H20.0107Z" fill="#0E3493"/>
</svg>
