<svg width="24" height="25" viewBox="0 0 24 25" fill="none" xmlns="http://www.w3.org/2000/svg">
<path d="M12.0865 22.5C11.9627 22.5 11.8388 22.4716 11.7271 22.4137L8.12599 20.5496C7.10415 20.0201 6.30481 19.4259 5.68063 18.7336C4.31449 17.2195 3.5544 15.276 3.54232 13.2599L3.50004 6.62426C3.495 5.85842 3.98931 5.17103 4.72826 4.91215L11.3405 2.60679C11.7331 2.46656 12.1711 2.4646 12.5707 2.59992L19.2081 4.82684C19.9511 5.07493 20.4535 5.75742 20.4575 6.52228L20.4998 13.1628C20.5129 15.176 19.779 17.1274 18.434 18.6581C17.8168 19.3602 17.0245 19.9632 16.0128 20.5025L12.4439 22.4088C12.3331 22.4686 12.2103 22.499 12.0865 22.5Z" fill="#E7A774"/>
<path d="M11.3192 14.8209C11.1259 14.8219 10.9326 14.7523 10.7836 14.6091L8.86675 12.7656C8.57077 12.4793 8.56775 12.0145 8.86071 11.7262C9.15367 11.4369 9.63187 11.434 9.92886 11.7193L11.3081 13.0451L14.6756 9.72479C14.9696 9.43551 15.4478 9.43257 15.7438 9.71792C16.0408 10.0043 16.0438 10.47 15.7508 10.7573L11.8517 14.6022C11.7047 14.7474 11.5125 14.8199 11.3192 14.8209Z" fill="#2D3250"/>
</svg>
