<svg width="51" height="50" viewBox="0 0 51 50" fill="none" xmlns="http://www.w3.org/2000/svg">
<path fill-rule="evenodd" clip-rule="evenodd" d="M25 48C37.7025 48 48 37.7025 48 25C48 12.2975 37.7025 2 25 2C12.2975 2 2 12.2975 2 25C2 37.7025 12.2975 48 25 48ZM25 49C38.2548 49 49 38.2548 49 25C49 11.7452 38.2548 1 25 1C11.7452 1 1 11.7452 1 25C1 38.2548 11.7452 49 25 49Z" fill="#D1E4FF"/>
<g clip-path="url(#clip0_529_9792)">
<path d="M35.1 20.7999L33 15.5999C32.7999 15.1999 32.5 14.8999 32.2 14.6999C31.8 14.4999 31.4 14.3999 31 14.3999H18.7C18.3 14.3999 17.9 14.4999 17.5 14.6999C17.2 14.8999 16.9 15.2999 16.7 15.6999L14.5 20.8999V20.9999C14.3 21.3999 14.2 21.6999 14.2 21.9999V34.6999C14.2 36.2999 15.5 36.8999 16.4 36.8999H33.2999C34.9 36.8999 35.5 35.5999 35.5 34.6999V21.9999C35.4 21.4999 35.3 21.0999 35.1 20.7999ZM25.6 15.7999H31C31.1 15.7999 31.1999 15.7999 31.4 15.8999C31.5 15.9999 31.6 16.0999 31.6 16.1999L33.1 19.9999H25.6V15.7999ZM18.1 16.0999C18.1 15.9999 18.2 15.8999 18.3 15.7999C18.4 15.6999 18.5 15.6999 18.6 15.6999H24V19.7999H16.6L18.1 16.0999ZM33.9 34.6999C33.9 35.0999 33.7 35.3999 33.2 35.3999H16.4C15.9 35.3999 15.7 35.1999 15.7 34.6999V21.9999C15.7 21.8999 15.7 21.7999 15.7 21.6999C15.7 21.6999 15.7 21.5999 15.8 21.5999C16 21.4999 16.2 21.3999 16.4 21.3999H33.2999C33.5 21.3999 33.6999 21.4999 33.7999 21.5999C33.7999 21.5999 33.9 21.6999 33.9 21.7999C33.9 21.8999 33.9 21.9999 33.9 21.9999V34.6999Z" fill="#0E3493"/>
<path d="M31.9 31.9001C31.9 32.3001 31.6 32.6001 31.1 32.6001H27C26.6 32.6001 26.2 32.3001 26.2 31.9001C26.2 31.5001 26.5 31.1001 27 31.1001H31.2C31.6 31.1001 31.9 31.5001 31.9 31.9001Z" fill="#0E3493"/>
</g>
<defs>
<clipPath id="clip0_529_9792">
<rect width="22" height="23" fill="white" transform="translate(14 14)"/>
</clipPath>
</defs>
</svg>
