<svg width="1440" height="900" viewBox="0 0 1440 900" fill="none" xmlns="http://www.w3.org/2000/svg">
<g clip-path="url(#clip0_529_3530)">
<g opacity="0.02" clip-path="url(#clip1_529_3530)">
<path d="M20.3 498.6H-13V531.9H20.3V498.6Z" fill="#DDDFE1"/>
<path d="M22.3 598.6H-11V631.9H22.3V598.6Z" fill="#DDDFE1"/>
<path d="M22.3 598.6H-11V631.9H22.3V598.6Z" fill="#DDDFE1"/>
<path d="M20.3 565.3H-13V598.6H20.3V565.3Z" fill="#FBFBFB"/>
<path d="M22.3 665.3H-11V698.6H22.3V665.3Z" fill="white"/>
<path d="M22.3 665.3H-11V698.6H22.3V665.3Z" fill="white"/>
<path d="M89.0001 465.3H55.7001V498.6H89.0001V465.3Z" fill="#FBFBFB"/>
<path d="M89.0001 665.3H55.7001V698.6H89.0001V665.3Z" fill="#DDDFE1"/>
<path d="M89.0001 665.3H55.7001V698.6H89.0001V665.3Z" fill="#DDDFE1"/>
<path d="M89.0001 598.6H55.7001V631.9H89.0001V598.6Z" fill="white"/>
<path d="M89.0001 598.6H55.7001V631.9H89.0001V598.6Z" fill="white"/>
<path d="M89.0001 565.3H55.7001V598.6H89.0001V565.3Z" fill="#EDEDED"/>
<path d="M90.0003 565.3H56.7003V598.6H90.0003V565.3Z" fill="#EDEDED"/>
<path d="M55.6001 631.9H22.3V665.2H55.6001V631.9Z" fill="#FBFBFB"/>
<path d="M55.6001 431.9H22.3V465.2H55.6001V431.9Z" fill="#DDDFE1"/>
<path d="M55 532H20V565H55V532Z" fill="#E0E0E0"/>
<path d="M55.6001 598.6H22.3V631.9H55.6001V598.6Z" fill="white"/>
<path d="M55.6001 598.6H22.3V631.9H55.6001V598.6Z" fill="white"/>
<path d="M22.3 731.9H-11V765.2H22.3V731.9Z" fill="#E0E0E0"/>
<path d="M22.3 731.9H-11V765.2H22.3V731.9Z" fill="#E0E0E0"/>
<path d="M22.3 798.6H-11V831.9H22.3V798.6Z" fill="#DDDFE1"/>
<path d="M22.3 798.6H-11V831.9H22.3V798.6Z" fill="#DDDFE1"/>
<path d="M22.3 831.9H-11V865.2H22.3V831.9Z" fill="white"/>
<path d="M22.3 831.9H-11V865.2H22.3V831.9Z" fill="white"/>
<path d="M22.3 898.6H-11V915.5H22.3V898.6Z" fill="#DDDFE1"/>
<path d="M22.3 898.6H-11V915.5H22.3V898.6Z" fill="#DDDFE1"/>
<path d="M89.0001 731.9H55.7001V765.2H89.0001V731.9Z" fill="white"/>
<path d="M89.0001 731.9H55.7001V765.2H89.0001V731.9Z" fill="white"/>
<path d="M89.0001 798.6H55.7001V831.9H89.0001V798.6Z" fill="white"/>
<path d="M89.0001 798.6H55.7001V831.9H89.0001V798.6Z" fill="white"/>
<path d="M89.0001 898.6H55.7001V915.5H89.0001V898.6Z" fill="white"/>
<path d="M89.0001 898.6H55.7001V915.5H89.0001V898.6Z" fill="white"/>
<path d="M89.0001 865.3H55.7001V898.6H89.0001V865.3Z" fill="#EDEDED"/>
<path d="M89.0001 865.3H55.7001V898.6H89.0001V865.3Z" fill="#EDEDED"/>
<path d="M22.3 698.6H-11V731.9H22.3V698.6Z" fill="#DDDFE1"/>
<path d="M22.3 698.6H-11V731.9H22.3V698.6Z" fill="#DDDFE1"/>
<path d="M55.6001 698.6H22.3V731.9H55.6001V698.6Z" fill="white"/>
<path d="M55.6001 765.3H22.3V798.6H55.6001V765.3Z" fill="#F4F4F4"/>
<path d="M55.6001 765.3H22.3V798.6H55.6001V765.3Z" fill="#F4F4F4"/>
<path d="M55.6001 831.9H22.3V865.2H55.6001V831.9Z" fill="#E0E0E0"/>
<path d="M55.6001 831.9H22.3V865.2H55.6001V831.9Z" fill="#E0E0E0"/>
<path d="M55.6001 798.6H22.3V831.9H55.6001V798.6Z" fill="white"/>
<path d="M55.6001 798.6H22.3V831.9H55.6001V798.6Z" fill="white"/>
<path d="M55.6001 865.3H22.3V898.6H55.6001V865.3Z" fill="white"/>
<path d="M55.6001 865.3H22.3V898.6H55.6001V865.3Z" fill="white"/>
<path d="M55.6001 898.6H22.3V915.5H55.6001V898.6Z" fill="white"/>
<path d="M55.6001 898.6H22.3V915.5H55.6001V898.6Z" fill="white"/>
<path d="M-77.7 598.6L94.5001 597.6V599.6L-77.7 598.6Z" fill="#E9EEF2"/>
<path d="M-111 798.6L94.5 797.6V799.6L-111 798.6Z" fill="#E9EEF2"/>
<path d="M-111 798.6L94.5 797.6V799.6L-111 798.6Z" fill="#E9EEF2"/>
<path d="M-111 831.9L94.5 830.9V832.9L-111 831.9Z" fill="#E9EEF2"/>
<path d="M-111 831.9L94.5 830.9V832.9L-111 831.9Z" fill="#E9EEF2"/>
</g>
<g opacity="0.02" clip-path="url(#clip2_529_3530)">
<path d="M110.3 633.6H77V666.9H110.3V633.6Z" fill="#DDDFE1"/>
<path d="M112.3 733.6H79V766.9H112.3V733.6Z" fill="#DDDFE1"/>
<path d="M112.3 733.6H79V766.9H112.3V733.6Z" fill="#DDDFE1"/>
<path d="M110.3 700.3H77V733.6H110.3V700.3Z" fill="#FBFBFB"/>
<path d="M112.3 800.3H79V833.6H112.3V800.3Z" fill="white"/>
<path d="M112.3 800.3H79V833.6H112.3V800.3Z" fill="white"/>
<path d="M179 600.3H145.7V633.6H179V600.3Z" fill="#FBFBFB"/>
<path d="M179 800.3H145.7V833.6H179V800.3Z" fill="#DDDFE1"/>
<path d="M179 800.3H145.7V833.6H179V800.3Z" fill="#DDDFE1"/>
<path d="M179 733.6H145.7V766.9H179V733.6Z" fill="white"/>
<path d="M179 733.6H145.7V766.9H179V733.6Z" fill="white"/>
<path d="M179 700.3H145.7V733.6H179V700.3Z" fill="#EDEDED"/>
<path d="M180 700.3H146.7V733.6H180V700.3Z" fill="#EDEDED"/>
<path d="M145.6 766.9H112.3V800.2H145.6V766.9Z" fill="#FBFBFB"/>
<path d="M145.6 566.9H112.3V600.2H145.6V566.9Z" fill="#DDDFE1"/>
<path d="M145 667H110V700H145V667Z" fill="#E0E0E0"/>
<path d="M145.6 733.6H112.3V766.9H145.6V733.6Z" fill="white"/>
<path d="M145.6 733.6H112.3V766.9H145.6V733.6Z" fill="white"/>
<path d="M112.3 866.9H79V900.2H112.3V866.9Z" fill="#E0E0E0"/>
<path d="M112.3 866.9H79V900.2H112.3V866.9Z" fill="#E0E0E0"/>
<path d="M179 866.9H145.7V900.2H179V866.9Z" fill="white"/>
<path d="M179 866.9H145.7V900.2H179V866.9Z" fill="white"/>
<path d="M112.3 833.6H79V866.9H112.3V833.6Z" fill="#DDDFE1"/>
<path d="M112.3 833.6H79V866.9H112.3V833.6Z" fill="#DDDFE1"/>
<path d="M145.6 833.6H112.3V866.9H145.6V833.6Z" fill="white"/>
<path d="M12.3 733.6L184.5 732.6V734.6L12.3 733.6Z" fill="#E9EEF2"/>
</g>
<g opacity="0.02" clip-path="url(#clip3_529_3530)">
<path d="M199.3 702.6H166V735.9H199.3V702.6Z" fill="#DDDFE1"/>
<path d="M201.3 802.6H168V835.9H201.3V802.6Z" fill="#DDDFE1"/>
<path d="M201.3 802.6H168V835.9H201.3V802.6Z" fill="#DDDFE1"/>
<path d="M199.3 769.3H166V802.6H199.3V769.3Z" fill="#FBFBFB"/>
<path d="M201.3 869.3H168V902.6H201.3V869.3Z" fill="white"/>
<path d="M201.3 869.3H168V902.6H201.3V869.3Z" fill="white"/>
<path d="M268 669.3H234.7V702.6H268V669.3Z" fill="#FBFBFB"/>
<path d="M268 869.3H234.7V902.6H268V869.3Z" fill="#DDDFE1"/>
<path d="M268 869.3H234.7V902.6H268V869.3Z" fill="#DDDFE1"/>
<path d="M268 802.6H234.7V835.9H268V802.6Z" fill="white"/>
<path d="M268 802.6H234.7V835.9H268V802.6Z" fill="white"/>
<path d="M268 769.3H234.7V802.6H268V769.3Z" fill="#EDEDED"/>
<path d="M269 769.3H235.7V802.6H269V769.3Z" fill="#EDEDED"/>
<path d="M234.6 835.9H201.3V869.2H234.6V835.9Z" fill="#FBFBFB"/>
<path d="M234.6 635.9H201.3V669.2H234.6V635.9Z" fill="#DDDFE1"/>
<path d="M234 736H199V769H234V736Z" fill="#E0E0E0"/>
<path d="M234.6 802.6H201.3V835.9H234.6V802.6Z" fill="white"/>
<path d="M234.6 802.6H201.3V835.9H234.6V802.6Z" fill="white"/>
<path d="M101.3 802.6L273.5 801.6V803.6L101.3 802.6Z" fill="#E9EEF2"/>
</g>
<g opacity="0.02" clip-path="url(#clip4_529_3530)">
<path d="M288.3 803.6H255V836.9H288.3V803.6Z" fill="#DDDFE1"/>
<path d="M288.3 870.3H255V903.6H288.3V870.3Z" fill="#FBFBFB"/>
<path d="M357 770.3H323.7V803.6H357V770.3Z" fill="#FBFBFB"/>
<path d="M357 870.3H323.7V903.6H357V870.3Z" fill="#EDEDED"/>
<path d="M358 870.3H324.7V903.6H358V870.3Z" fill="#EDEDED"/>
<path d="M323.6 736.9H290.3V770.2H323.6V736.9Z" fill="#DDDFE1"/>
<path d="M323 837H288V870H323V837Z" fill="#E0E0E0"/>
</g>
<g opacity="0.02" clip-path="url(#clip5_529_3530)">
<path d="M446 868.3H412.7V901.6H446V868.3Z" fill="#FBFBFB"/>
<path d="M412.6 834.9H379.3V868.2H412.6V834.9Z" fill="#DDDFE1"/>
</g>
<g opacity="0.02" clip-path="url(#clip6_529_3530)">
<path d="M1419.7 401.4H1453V368.1H1419.7V401.4Z" fill="#DDDFE1"/>
<path d="M1417.7 301.4H1451V268.1H1417.7V301.4Z" fill="#DDDFE1"/>
<path d="M1417.7 301.4H1451V268.1H1417.7V301.4Z" fill="#DDDFE1"/>
<path d="M1419.7 334.7H1453V301.4H1419.7V334.7Z" fill="#FBFBFB"/>
<path d="M1417.7 234.7H1451V201.4H1417.7V234.7Z" fill="white"/>
<path d="M1417.7 234.7H1451V201.4H1417.7V234.7Z" fill="white"/>
<path d="M1351 434.7H1384.3V401.4H1351V434.7Z" fill="#FBFBFB"/>
<path d="M1351 234.7H1384.3V201.4H1351V234.7Z" fill="#DDDFE1"/>
<path d="M1351 234.7H1384.3V201.4H1351V234.7Z" fill="#DDDFE1"/>
<path d="M1351 301.4H1384.3V268.1H1351V301.4Z" fill="white"/>
<path d="M1351 301.4H1384.3V268.1H1351V301.4Z" fill="white"/>
<path d="M1351 334.7H1384.3V301.4H1351V334.7Z" fill="#EDEDED"/>
<path d="M1350 334.7H1383.3V301.4H1350V334.7Z" fill="#EDEDED"/>
<path d="M1384.4 268.1H1417.7V234.8H1384.4V268.1Z" fill="#FBFBFB"/>
<path d="M1384.4 468.1H1417.7V434.8H1384.4V468.1Z" fill="#DDDFE1"/>
<path d="M1385 368H1420V335H1385V368Z" fill="#E0E0E0"/>
<path d="M1384.4 301.4H1417.7V268.1H1384.4V301.4Z" fill="white"/>
<path d="M1384.4 301.4H1417.7V268.1H1384.4V301.4Z" fill="white"/>
<path d="M1417.7 168.1H1451V134.8H1417.7V168.1Z" fill="#E0E0E0"/>
<path d="M1417.7 168.1H1451V134.8H1417.7V168.1Z" fill="#E0E0E0"/>
<path d="M1417.7 101.4H1451V68.0999H1417.7V101.4Z" fill="#DDDFE1"/>
<path d="M1417.7 101.4H1451V68.0999H1417.7V101.4Z" fill="#DDDFE1"/>
<path d="M1417.7 68.0999H1451V34.7998H1417.7V68.0999Z" fill="white"/>
<path d="M1417.7 68.0999H1451V34.7998H1417.7V68.0999Z" fill="white"/>
<path d="M1417.7 1.3999H1451V-15.5001H1417.7V1.3999Z" fill="#DDDFE1"/>
<path d="M1417.7 1.3999H1451V-15.5001H1417.7V1.3999Z" fill="#DDDFE1"/>
<path d="M1351 168.1H1384.3V134.8H1351V168.1Z" fill="white"/>
<path d="M1351 168.1H1384.3V134.8H1351V168.1Z" fill="white"/>
<path d="M1351 101.4H1384.3V68.0999H1351V101.4Z" fill="white"/>
<path d="M1351 101.4H1384.3V68.0999H1351V101.4Z" fill="white"/>
<path d="M1351 1.3999H1384.3V-15.5001H1351V1.3999Z" fill="white"/>
<path d="M1351 1.3999H1384.3V-15.5001H1351V1.3999Z" fill="white"/>
<path d="M1351 34.7H1384.3V1.39993H1351V34.7Z" fill="#EDEDED"/>
<path d="M1351 34.7H1384.3V1.39993H1351V34.7Z" fill="#EDEDED"/>
<path d="M1417.7 201.4H1451V168.1H1417.7V201.4Z" fill="#DDDFE1"/>
<path d="M1417.7 201.4H1451V168.1H1417.7V201.4Z" fill="#DDDFE1"/>
<path d="M1384.4 201.4H1417.7V168.1H1384.4V201.4Z" fill="white"/>
<path d="M1384.4 134.7H1417.7V101.4H1384.4V134.7Z" fill="#F4F4F4"/>
<path d="M1384.4 134.7H1417.7V101.4H1384.4V134.7Z" fill="#F4F4F4"/>
<path d="M1384.4 68.0999H1417.7V34.7998H1384.4V68.0999Z" fill="#E0E0E0"/>
<path d="M1384.4 68.0999H1417.7V34.7998H1384.4V68.0999Z" fill="#E0E0E0"/>
<path d="M1384.4 101.4H1417.7V68.0999H1384.4V101.4Z" fill="white"/>
<path d="M1384.4 101.4H1417.7V68.0999H1384.4V101.4Z" fill="white"/>
<path d="M1384.4 34.7H1417.7V1.39993H1384.4V34.7Z" fill="white"/>
<path d="M1384.4 34.7H1417.7V1.39993H1384.4V34.7Z" fill="white"/>
<path d="M1384.4 1.3999H1417.7V-15.5001H1384.4V1.3999Z" fill="white"/>
<path d="M1384.4 1.3999H1417.7V-15.5001H1384.4V1.3999Z" fill="white"/>
<path d="M1517.7 301.4L1345.5 302.4V300.4L1517.7 301.4Z" fill="#E9EEF2"/>
<path d="M1551 101.4L1345.5 102.4V100.4L1551 101.4Z" fill="#E9EEF2"/>
<path d="M1551 101.4L1345.5 102.4V100.4L1551 101.4Z" fill="#E9EEF2"/>
<path d="M1551 68.0999L1345.5 69.0999V67.0999L1551 68.0999Z" fill="#E9EEF2"/>
<path d="M1551 68.0999L1345.5 69.0999V67.0999L1551 68.0999Z" fill="#E9EEF2"/>
</g>
<g opacity="0.02" clip-path="url(#clip7_529_3530)">
<path d="M1329.7 266.4H1363V233.1H1329.7V266.4Z" fill="#DDDFE1"/>
<path d="M1327.7 166.4H1361V133.1H1327.7V166.4Z" fill="#DDDFE1"/>
<path d="M1327.7 166.4H1361V133.1H1327.7V166.4Z" fill="#DDDFE1"/>
<path d="M1329.7 199.7H1363V166.4H1329.7V199.7Z" fill="#FBFBFB"/>
<path d="M1327.7 99.7H1361V66.3999H1327.7V99.7Z" fill="white"/>
<path d="M1327.7 99.7H1361V66.3999H1327.7V99.7Z" fill="white"/>
<path d="M1261 299.7H1294.3V266.4H1261V299.7Z" fill="#FBFBFB"/>
<path d="M1261 99.7H1294.3V66.3999H1261V99.7Z" fill="#DDDFE1"/>
<path d="M1261 99.7H1294.3V66.3999H1261V99.7Z" fill="#DDDFE1"/>
<path d="M1261 166.4H1294.3V133.1H1261V166.4Z" fill="white"/>
<path d="M1261 166.4H1294.3V133.1H1261V166.4Z" fill="white"/>
<path d="M1261 199.7H1294.3V166.4H1261V199.7Z" fill="#EDEDED"/>
<path d="M1260 199.7H1293.3V166.4H1260V199.7Z" fill="#EDEDED"/>
<path d="M1294.4 133.1H1327.7V99.7998H1294.4V133.1Z" fill="#FBFBFB"/>
<path d="M1294.4 333.1H1327.7V299.8H1294.4V333.1Z" fill="#DDDFE1"/>
<path d="M1295 233H1330V200H1295V233Z" fill="#E0E0E0"/>
<path d="M1294.4 166.4H1327.7V133.1H1294.4V166.4Z" fill="white"/>
<path d="M1294.4 166.4H1327.7V133.1H1294.4V166.4Z" fill="white"/>
<path d="M1327.7 33.0999H1361V-0.200165H1327.7V33.0999Z" fill="#E0E0E0"/>
<path d="M1327.7 33.0999H1361V-0.200165H1327.7V33.0999Z" fill="#E0E0E0"/>
<path d="M1261 33.0999H1294.3V-0.200165H1261V33.0999Z" fill="white"/>
<path d="M1261 33.0999H1294.3V-0.200165H1261V33.0999Z" fill="white"/>
<path d="M1327.7 66.3999H1361V33.0999H1327.7V66.3999Z" fill="#DDDFE1"/>
<path d="M1327.7 66.3999H1361V33.0999H1327.7V66.3999Z" fill="#DDDFE1"/>
<path d="M1294.4 66.3999H1327.7V33.0999H1294.4V66.3999Z" fill="white"/>
<path d="M1427.7 166.4L1255.5 167.4V165.4L1427.7 166.4Z" fill="#E9EEF2"/>
</g>
<g opacity="0.02" clip-path="url(#clip8_529_3530)">
<path d="M1240.7 197.4H1274V164.1H1240.7V197.4Z" fill="#DDDFE1"/>
<path d="M1238.7 97.3999H1272V64.0999H1238.7V97.3999Z" fill="#DDDFE1"/>
<path d="M1238.7 97.3999H1272V64.0999H1238.7V97.3999Z" fill="#DDDFE1"/>
<path d="M1240.7 130.7H1274V97.3999H1240.7V130.7Z" fill="#FBFBFB"/>
<path d="M1238.7 30.7H1272V-2.60007H1238.7V30.7Z" fill="white"/>
<path d="M1238.7 30.7H1272V-2.60007H1238.7V30.7Z" fill="white"/>
<path d="M1172 230.7H1205.3V197.4H1172V230.7Z" fill="#FBFBFB"/>
<path d="M1172 30.7H1205.3V-2.60007H1172V30.7Z" fill="#DDDFE1"/>
<path d="M1172 30.7H1205.3V-2.60007H1172V30.7Z" fill="#DDDFE1"/>
<path d="M1172 97.3999H1205.3V64.0999H1172V97.3999Z" fill="white"/>
<path d="M1172 97.3999H1205.3V64.0999H1172V97.3999Z" fill="white"/>
<path d="M1172 130.7H1205.3V97.3999H1172V130.7Z" fill="#EDEDED"/>
<path d="M1171 130.7H1204.3V97.3999H1171V130.7Z" fill="#EDEDED"/>
<path d="M1205.4 64.0999H1238.7V30.7998H1205.4V64.0999Z" fill="#FBFBFB"/>
<path d="M1205.4 264.1H1238.7V230.8H1205.4V264.1Z" fill="#DDDFE1"/>
<path d="M1206 164H1241V131H1206V164Z" fill="#E0E0E0"/>
<path d="M1205.4 97.3999H1238.7V64.0999H1205.4V97.3999Z" fill="white"/>
<path d="M1205.4 97.3999H1238.7V64.0999H1205.4V97.3999Z" fill="white"/>
<path d="M1338.7 97.3999L1166.5 98.3999V96.3999L1338.7 97.3999Z" fill="#E9EEF2"/>
</g>
<g opacity="0.02" clip-path="url(#clip9_529_3530)">
<path d="M1151.7 96.3999H1185V63.0999H1151.7V96.3999Z" fill="#DDDFE1"/>
<path d="M1151.7 29.7H1185V-3.60005H1151.7V29.7Z" fill="#FBFBFB"/>
<path d="M1083 129.7H1116.3V96.4H1083V129.7Z" fill="#FBFBFB"/>
<path d="M1083 29.7H1116.3V-3.60005H1083V29.7Z" fill="#EDEDED"/>
<path d="M1082 29.7H1115.3V-3.60005H1082V29.7Z" fill="#EDEDED"/>
<path d="M1116.4 163.1H1149.7V129.8H1116.4V163.1Z" fill="#DDDFE1"/>
<path d="M1117 63H1152V30H1117V63Z" fill="#E0E0E0"/>
</g>
<g opacity="0.02" clip-path="url(#clip10_529_3530)">
<path d="M994 31.7H1027.3V-1.60004H994V31.7Z" fill="#FBFBFB"/>
<path d="M1027.4 65.0999H1060.7V31.7999H1027.4V65.0999Z" fill="#DDDFE1"/>
</g>
<g opacity="0.02" clip-path="url(#clip11_529_3530)">
<path d="M116 158.3H82.7001V191.6H116V158.3Z" fill="#FBFBFB"/>
<path d="M82.6001 124.9H49.3V158.2H82.6001V124.9Z" fill="#DDDFE1"/>
</g>
<g opacity="0.02" clip-path="url(#clip12_529_3530)">
<path d="M450 -10.7H416.7V22.6H450V-10.7Z" fill="#FBFBFB"/>
</g>
</g>
<defs>
<clipPath id="clip0_529_3530">
<rect width="1440" height="900" fill="white"/>
</clipPath>
<clipPath id="clip1_529_3530">
<rect width="89" height="500" fill="white" transform="translate(0 400)"/>
</clipPath>
<clipPath id="clip2_529_3530">
<rect width="89" height="365" fill="white" transform="translate(90 535)"/>
</clipPath>
<clipPath id="clip3_529_3530">
<rect width="89" height="296" fill="white" transform="translate(179 604)"/>
</clipPath>
<clipPath id="clip4_529_3530">
<rect width="89" height="195" fill="white" transform="translate(268 705)"/>
</clipPath>
<clipPath id="clip5_529_3530">
<rect width="89" height="97" fill="white" transform="translate(357 803)"/>
</clipPath>
<clipPath id="clip6_529_3530">
<rect width="89" height="500" fill="white" transform="matrix(-1 0 0 -1 1440 500)"/>
</clipPath>
<clipPath id="clip7_529_3530">
<rect width="89" height="365" fill="white" transform="matrix(-1 0 0 -1 1350 365)"/>
</clipPath>
<clipPath id="clip8_529_3530">
<rect width="89" height="296" fill="white" transform="matrix(-1 0 0 -1 1261 296)"/>
</clipPath>
<clipPath id="clip9_529_3530">
<rect width="89" height="195" fill="white" transform="matrix(-1 0 0 -1 1172 195)"/>
</clipPath>
<clipPath id="clip10_529_3530">
<rect width="89" height="97" fill="white" transform="matrix(-1 0 0 -1 1083 97)"/>
</clipPath>
<clipPath id="clip11_529_3530">
<rect width="89" height="97" fill="white" transform="translate(27 93)"/>
</clipPath>
<clipPath id="clip12_529_3530">
<rect width="89" height="97" fill="white" transform="translate(361 -76)"/>
</clipPath>
</defs>
</svg>
