<svg width="283" height="184" viewBox="0 0 283 184" fill="none" xmlns="http://www.w3.org/2000/svg">
<path d="M108.621 94.8582C108.621 94.8582 112.693 91.8289 113.47 91.5567C114.248 91.2847 116.806 90.9568 116.929 91.1681C117.052 91.3794 117.414 92.0266 116.97 92.2571C116.525 92.4872 115.967 92.4199 116.137 92.5715C116.306 92.7232 117.977 91.8423 118.381 92.7436C118.786 93.6453 119.181 96.753 117.221 97.7353C115.26 98.7177 110.364 97.958 110.015 98.0735C107.046 99.0485 108.621 94.8582 108.621 94.8582Z" fill="#F98F00"/>
<path d="M110.084 95.938C109.939 93.5308 108.722 93.2999 108.722 93.2999C108.722 93.2999 85.2472 92.1532 83.2169 91.781C81.1868 91.4086 62.2069 75.4369 62.2069 75.4369C62.2069 75.4369 54.8571 68.7237 49.8416 71.1471C45.483 73.2523 44.1816 77.2529 44.0294 80.9101C43.8479 85.2682 46.2443 89.2878 50.015 91.0549C58.4783 95.0212 75.4021 102.801 79.2339 103.422C87.7636 104.805 109.518 99.3394 109.518 99.3394C109.518 99.3394 110.198 97.8281 110.084 95.938Z" fill="#F98F00"/>
<path d="M184.443 76.4297H106.998V183.227H184.443V76.4297Z" fill="#5DABCE"/>
<path d="M164.607 76.4297H86.6804V183.227H164.607V76.4297Z" fill="#7FC5DD"/>
<path d="M86.6803 90.3457L164.606 90.3457V89.8234L86.6803 89.8234V90.3457Z" fill="white"/>
<path d="M86.6803 170.317H164.606V169.31H86.6803V170.317Z" fill="#739AF0"/>
<path d="M104.1 83.3875C104.1 80.9966 102.162 79.0576 99.7708 79.0576C97.3795 79.0576 95.4409 80.9964 95.4409 83.3875C95.4409 85.7785 97.3793 87.7171 99.7708 87.7171C102.162 87.7171 104.1 85.7783 104.1 83.3875Z" fill="white"/>
<path d="M66.0939 183.244H83.5255C83.2507 182.58 82.5865 181.715 80.9684 181.431C78.223 180.95 73.4567 179.465 74.0675 175.502C74.6866 171.485 68.0006 170.967 68.0006 170.967C68.0006 170.967 65.2188 181.715 66.0939 183.244Z" fill="#FFAB2F"/>
<path d="M146.746 87.7171H158.295C160.014 87.7171 161.421 86.3104 161.421 84.5914V82.1835C161.421 80.4646 160.014 79.0576 158.295 79.0576H146.746C145.027 79.0576 143.62 80.4644 143.62 82.1835V84.5914C143.62 86.3101 145.027 87.7171 146.746 87.7171Z" fill="white"/>
<path d="M109.002 87.1335H119.975C120.707 87.1335 121.305 86.535 121.305 85.8036V81.6906C121.305 80.9591 120.707 80.3608 119.975 80.3608H109.002C108.271 80.3608 107.672 80.9593 107.672 81.6906V85.8036C107.672 86.535 108.271 87.1335 109.002 87.1335Z" fill="white"/>
<path d="M35.5699 142.924C35.7136 143.265 35.9025 143.564 36.1364 143.82C36.4086 144.119 36.8979 144.409 37.5798 144.689C39.8544 145.627 44.2562 146.445 49.7721 147.006C55.5028 147.589 62.4342 147.898 69.4324 147.778C71.5861 147.743 73.748 147.665 75.8815 147.542C91.3573 146.661 105.42 143.414 105.436 136.109C105.454 128.679 81.7509 123.16 63.7683 120.046C61.9072 119.722 60.1057 119.423 58.4006 119.154C50.0371 117.826 43.9287 117.131 43.9287 117.131C43.9287 117.131 43.5884 117.732 43.041 118.758C42.7688 119.268 42.4468 119.881 42.0867 120.578C40.2922 124.076 37.6264 129.663 36.1728 134.592C35.176 137.978 34.7461 141.05 35.5699 142.924Z" fill="#4D65C8"/>
<path d="M35.5699 142.924C36.2182 143.519 36.8911 144.109 37.5796 144.69C39.8542 145.627 44.256 146.445 49.7719 147.006C55.5026 147.589 81.7835 147.623 88.7821 147.502C80.5661 134.223 55.6396 131.588 54.1088 129.828C53.9847 129.683 37.6262 129.663 36.1728 134.592C35.176 137.978 34.7461 141.05 35.5699 142.924Z" fill="#4D65C8"/>
<path d="M104.312 139.47C104.312 139.47 77.6086 172.886 75.8106 176.929C75.8106 176.929 68.4532 177.614 66.6833 172.358C66.6833 172.358 79.5376 136.456 85.1869 133.497C90.8363 130.538 104.312 139.47 104.312 139.47Z" fill="#4D65C8"/>
<path d="M55.625 62.9655C55.625 62.9655 63.0714 73.1567 69.7089 73.7018C69.7089 73.7018 68.8606 69.8659 66.9018 67.4469C67.4285 66.5973 67.8861 65.8201 68.2789 65.1278C69.5829 62.8174 70.1605 61.4364 70.1605 61.4364L67.1076 55.9129L66.4774 52.9434C65.9609 54.3378 65.3569 55.6236 64.6823 56.6848C61.2043 62.1458 55.625 62.9655 55.625 62.9655Z" fill="#FF8B61"/>
<path d="M64.3923 56.6305C64.3923 56.6305 63.3118 61.7361 68.279 65.1279C69.583 62.8175 70.1606 61.4365 70.1606 61.4365L67.1077 55.9129C64.6679 55.5515 64.3923 56.6305 64.3923 56.6305Z" fill="#F36C48"/>
<path d="M71.0896 64.5157C71.0896 64.5157 61.7489 59.427 65.0074 53.6589C68.2655 47.8907 69.2549 43.3491 75.3562 46.3544C81.4576 49.3592 81.3634 52.2095 80.7436 54.3995C80.1243 56.589 73.603 65.6909 71.0896 64.5157Z" fill="#FF8B61"/>
<path d="M65.0406 42.1752C64.9895 42.0302 64.8082 41.8593 64.3389 41.6476C64.3389 41.6476 64.8156 41.5524 65.3332 41.7374C65.6948 41.0989 66.5125 40.0382 67.7719 40.19C67.7719 40.19 67.0264 40.2857 66.6682 40.9742C68.5324 40.1016 71.7687 40.1925 79.4084 43.8703C89.4763 48.7164 83.4426 54.1498 81.7862 54.4356C80.1299 54.7212 77.5973 51.2052 75.0132 50.4394C72.4291 49.6731 70.5318 53.1667 69.4864 53.3434C68.4413 53.5194 69.1202 52.7564 68.1742 51.7838C67.2275 50.8119 66.3707 52.7049 66.2166 54.0921C66.0626 55.4791 63.8407 56.5287 63.8407 56.5287C63.8407 56.5287 63.8407 56.5287 62.9181 54.1649C61.996 51.8011 63.3489 43.8201 64.6841 42.5233C64.8022 42.408 64.9206 42.2916 65.0406 42.1752Z" fill="#5E0A0A"/>
<path d="M9.27045 171.787C9.27045 171.787 7.09775 175.374 6.59251 176.537C6.08749 177.699 7.07839 180.173 8.56857 180.545C9.88253 180.874 10.0792 183.408 10.0792 183.408H3.70964C3.03521 183.408 2.42696 183.005 2.16732 182.382C1.269 180.231 1.06363 177.434 0.882728 176.499C0.502842 174.532 -0.249902 172.881 0.0827377 170.877C0.414101 168.881 3.55152 167.725 9.27067 167.744C15.5534 167.765 9.27045 171.787 9.27045 171.787Z" fill="#FFAB2F"/>
<path d="M29.4527 134.894C31.2646 141.769 35.6571 152.839 40.6713 162.654C43.2137 167.633 45.918 172.291 48.5255 175.912C51.4629 179.991 54.273 182.753 56.5964 183.185C57.2103 183.299 57.789 183.25 58.3274 183.02C59.6635 182.449 60.6398 180.881 61.3267 178.601V178.598C65.5678 164.553 58.9359 123.593 58.9359 123.593C58.9359 123.593 52.2552 123.536 45.1638 124.105C37.8151 124.697 30.0258 125.957 28.7599 128.643C28.3411 129.533 28.6329 131.783 29.4527 134.894Z" fill="#4D65C8"/>
<path d="M27.9971 128.084C32.8007 133.174 68.0725 122.643 65.1159 119.961C64.3638 119.279 64.6209 118.46 64.3153 117.362C62.8522 112.156 65.7648 103.246 67.0143 99.7925C67.3065 98.9921 67.5066 98.486 67.5444 98.3837C68.7373 95.1594 69.6597 91.803 70.2628 88.5602C71.4259 82.3367 71.4044 76.549 69.814 73.0026C69.8033 72.9838 69.8004 72.9678 69.7895 72.9542C63.1822 71.0229 59.5445 61.3022 59.5445 61.3022C59.5445 61.3022 38.6131 67.2472 31.0157 97.115C31.0157 97.115 30.6237 99.0189 30.1396 101.878H30.1368C29.9908 102.754 29.8337 103.722 29.6767 104.753C28.8652 110.068 28.3944 116.883 27.9132 121.957C27.8945 122.133 27.8779 122.312 27.8592 122.496C27.6187 124.684 27.1992 127.237 27.9971 128.084Z" fill="#FFAB2F"/>
<path d="M8.59701 174.213C9.5164 174.222 12.2807 174.646 16.0536 175.309C29.723 177.702 56.5938 183.196 56.5938 183.196C56.5938 183.196 56.5938 183.193 56.5968 183.185C56.6183 183.003 56.916 180.607 56.9863 177.516C57.0942 172.586 56.6183 165.886 53.5051 163.606C51.85 162.391 46.784 162.267 40.6716 162.654C27.789 163.465 10.2628 166.559 10.2628 166.559C7.39606 170.086 8.59701 174.213 8.59701 174.213Z" fill="#4D65C8"/>
<path d="M29.4527 134.894C36.563 134.669 54.3977 125.914 54.1055 125.844C50.7844 125.027 47.8145 124.462 45.1638 124.105C37.8151 124.697 30.0258 125.958 28.7599 128.643C28.3411 129.533 28.6329 131.783 29.4527 134.894Z" fill="#4D65C8"/>
<path d="M52.2849 81.7114C52.2849 81.7114 52.6989 114.062 64.3155 117.362C62.8524 112.155 65.765 103.246 67.0145 99.7921C64.0208 91.4725 58.5085 83.0801 52.2849 81.7114Z" fill="#F98F00"/>
<path d="M56.0339 62.7583C56.0339 62.7583 64.9811 64.6201 65.8549 72.4604C66.4911 78.1706 60.2479 91.1008 60.2479 91.1008L59.0589 89.912C59.0589 89.912 64.5393 73.947 63.6963 71.2312C62.6154 67.749 57.4715 62.5391 52.7402 64.6203L56.0339 62.7583Z" fill="#4D65C8"/>
<path d="M27.9971 128.083C32.8007 133.173 68.832 122.755 65.8757 120.072C65.1238 119.39 64.6209 118.46 64.3153 117.362C62.8522 112.155 65.7649 103.246 67.0143 99.7921C67.3065 98.9917 67.5066 98.4856 67.5445 98.3833L65.7246 96.5655L59.0571 89.9121C59.0571 89.9121 57.0858 92.1486 53.3586 94.6859C48.4744 98.0155 40.5736 101.861 30.1394 101.878H30.1366C29.9906 102.754 29.8336 103.722 29.6765 104.753C28.865 110.067 28.3942 116.883 27.913 121.957C27.8943 122.133 27.8777 122.311 27.859 122.496C27.6187 124.683 27.1992 127.237 27.9971 128.083Z" fill="#4D65C8"/>
<path d="M53.3589 94.6859C54.6924 104.09 57.673 115.474 64.3156 117.362C62.8524 112.155 65.7651 103.246 67.0146 99.7921C66.6253 98.7131 66.1952 97.6313 65.7247 96.5655L59.0572 89.9121C59.0572 89.9121 57.086 92.1486 53.3589 94.6859Z" fill="#4D65C8"/>
<path d="M101.109 110.589C101.109 110.589 105.986 109.518 106.805 109.581C107.624 109.645 110.11 110.35 110.147 110.582C110.183 110.814 110.281 111.521 109.786 111.55C109.291 111.579 108.798 111.304 108.9 111.502C109.001 111.701 110.87 111.578 110.914 112.523C110.958 113.468 110.185 116.339 108.011 116.438C105.837 116.537 101.586 113.976 101.22 113.941C98.1167 113.643 101.109 110.589 101.109 110.589Z" fill="#FF8B61"/>
<path d="M102.067 112.101C102.814 109.94 101.772 109.266 101.772 109.266C101.772 109.266 80.4757 99.1661 78.734 98.0534C76.992 96.9408 65.2845 75.6173 65.2845 75.6173C65.2845 75.6173 60.944 66.898 55.4164 67.0734C50.6128 67.2256 47.9434 70.22 46.4626 73.3597C44.6981 77.1005 45.4427 81.5449 48.2839 84.5512C54.6603 91.2998 67.4666 104.662 70.7845 106.691C78.169 111.205 100.297 114.856 100.297 114.856C100.297 114.856 101.48 113.799 102.067 112.101Z" fill="#FFAB2F"/>
<path d="M16.0535 175.309C29.7228 177.703 56.5936 183.196 56.5936 183.196C56.5936 183.196 56.5936 183.193 56.5966 183.185C57.2106 183.299 57.7893 183.25 58.3277 183.02C59.6638 182.449 60.64 180.881 61.327 178.601V178.598C61.327 178.598 59.7394 178.136 56.9861 177.516C54.8196 177.027 51.9309 176.442 48.5258 175.912C39.9059 174.566 27.9702 173.556 16.0535 175.309Z" fill="#4D65C8"/>
<path d="M133.403 177.999H154.725V152.081C154.725 150.066 156.374 148.417 158.39 148.417H195.034C197.049 148.417 198.698 150.066 198.698 152.081V179.564C198.698 181.58 197.049 183.229 195.034 183.229H167.228C166.928 183.343 166.604 183.409 166.265 183.409H133.403C131.909 183.409 130.698 182.198 130.698 180.704C130.698 179.21 131.909 177.999 133.403 177.999Z" fill="#4D65C8"/>
<path d="M199.309 148.417H194.84C194.818 148.409 194.778 148.398 194.71 148.387C194.372 148.336 189.451 144.124 184.444 143.041C183.684 142.877 182.922 142.783 182.173 142.79C174.32 142.845 166.152 147.489 164.607 148.41C164.602 148.413 164.6 148.415 164.596 148.417H162.666C160.65 148.417 159.001 150.066 159.001 152.082V179.565C159.001 181.37 160.325 182.881 162.05 183.175C162.221 183.205 162.395 183.222 162.572 183.226C162.602 183.228 162.634 183.228 162.666 183.228H199.309C199.518 183.228 199.724 183.211 199.924 183.175C201.65 182.881 202.974 181.37 202.974 179.565V152.082C202.974 150.066 201.325 148.417 199.309 148.417ZM182.134 144.773C182.769 144.792 183.573 144.988 184.444 145.282C187.01 146.15 190.145 147.868 191.116 148.417H170.864C173.296 147.315 179.389 144.691 182.134 144.773Z" fill="#4D65C8"/>
<path d="M267.58 168.905C267.58 168.905 270.646 171.746 270.048 173.765C269.449 175.783 266.683 177.129 266.309 179.596C265.935 182.064 264.44 183.409 263.094 183.409C261.749 183.409 256.679 183.409 256.679 183.409C256.679 183.409 255.688 181.673 258.08 181.15C260.473 180.626 261.375 177.727 261.225 175.036C261.076 172.344 261.45 168.755 261.45 168.755L266.534 167.559L267.58 168.905Z" fill="#081A3D"/>
<path d="M229.376 183.132C229.141 183.25 228.456 183.34 227.487 183.408H211.97C212.043 182.911 212.449 181.482 214.722 181.113C217.401 180.679 222.045 179.121 223.081 175.694C223.114 175.583 223.144 175.47 223.17 175.356C223.992 171.692 229.973 176.478 229.973 176.478C229.973 176.478 229.991 176.624 230.017 176.873C230.156 178.216 230.511 182.564 229.376 183.132Z" fill="#081A3D"/>
<path d="M215.433 85.1448C215.433 85.1448 216.342 96.4783 217.409 110.102C218.86 128.608 220.605 151.341 220.778 155.647C221.076 163.125 222.274 175.087 222.274 175.087C222.274 175.087 225.114 177.929 230.797 176.731C230.797 176.731 235.862 159.656 237.308 141.589C237.331 141.292 237.353 140.994 237.376 140.696C238.721 122.304 240.814 83.5752 240.814 83.5752L215.433 85.1448Z" fill="#FFAB2F"/>
<path d="M215.433 85.1445C215.433 85.1445 216.342 96.4781 217.409 110.102L237.308 141.588C237.331 141.292 237.353 140.994 237.376 140.696C238.721 122.304 240.814 83.5747 240.814 83.5747L215.433 85.1445Z" fill="#F98F00"/>
<path d="M219.581 86.4906C219.581 86.4906 235.955 127.536 246.721 146.826C257.487 166.115 260.851 171.498 260.851 171.498C260.851 171.498 267.019 169.031 267.58 167.349C267.58 167.349 263.463 130.11 256.253 121.032C252.179 115.902 247.393 100.509 247.169 95.1258C246.945 89.7427 245.711 79.0889 245.711 79.0889L219.581 86.4906Z" fill="#FFAB2F"/>
<path d="M187.449 80.8096C187.449 80.8096 181.671 83.5826 180.893 84.2945C180.115 85.0064 178.196 88.5007 178.344 88.7642C178.491 89.0275 178.778 89.109 179.302 88.747C179.826 88.3847 181.295 86.8712 181.349 87.1523C181.404 87.4332 177.427 92.1128 178.13 93.1028C178.834 94.0931 182.82 93.8004 185.096 92.1813C187.373 90.5626 189.645 84.6112 189.987 84.2862C192.89 81.5304 187.449 80.8096 187.449 80.8096Z" fill="#FF8B61"/>
<path d="M187.188 83.7814C185.584 82.3857 185.542 82.0324 185.542 82.0324C185.542 82.0324 195.788 64.3157 196.676 62.6118C197.564 60.9078 203.055 34.3002 203.055 34.3002L222.038 28.7964C222.038 28.7964 208.667 63.372 206.331 67.6448C202.473 74.7062 189.875 85.0986 189.875 85.0986C189.875 85.0986 188.449 84.8772 187.188 83.7814Z" fill="#4D65C8"/>
<path d="M212.368 21.8727C212.368 21.8727 205.687 33.6268 199.158 35.1611C199.158 35.1611 199.43 31.2132 201.019 28.5119C200.368 27.744 199.797 27.0385 199.302 26.4071C197.658 24.3008 196.876 23.0113 196.876 23.0113L199.093 17.0536L200.596 13.0112C201.319 14.3231 202.116 15.441 202.946 16.3968C207.226 21.3174 212.368 21.8727 212.368 21.8727Z" fill="#FF8B61"/>
<path d="M202.946 16.3967C202.946 16.3967 203.743 22.2872 199.302 26.407C197.658 24.3007 196.876 23.0112 196.876 23.0112L199.093 17.0535C201.469 16.3292 202.946 16.3967 202.946 16.3967Z" fill="#F36C48"/>
<path d="M195.116 23.8794C195.116 23.8794 205.098 19.9882 202.579 13.8093C200.059 7.63046 199.651 2.96712 193.172 5.19025C186.692 7.4136 186.423 10.2731 186.762 12.5398C187.102 14.8068 192.454 24.7326 195.116 23.8794Z" fill="#FF8B61"/>
<path d="M246.679 82.1909C242.653 87.979 212.546 95.7138 212.906 91.7085C213.042 90.1734 213.226 87.4714 212.902 83.8058C212.826 82.9466 212.718 82.0351 212.582 81.0757C211.814 75.8071 210 69.0398 205.946 61.2011C205.642 60.6138 205.327 60.0221 204.999 59.4224C203.328 56.3886 201.909 53.1831 200.826 50.0448C198.739 44.0171 197.896 38.2488 198.951 34.4795C198.955 34.4595 198.959 34.4435 198.967 34.4275C205.259 31.5176 207.697 20.2334 207.697 20.2334C207.697 20.2334 229.167 24.0867 241.194 52.703C241.194 52.703 242.349 55.8451 243.669 60.11C245.271 65.2824 247.118 72.1019 247.438 76.9665C247.594 79.2771 247.402 81.1478 246.679 82.1909Z" fill="#4D65C8"/>
<path d="M204.012 2.3321C204.082 2.19398 204.285 2.04628 204.781 1.89475C204.781 1.89475 204.316 1.73855 203.775 1.85751C203.496 1.17372 202.814 0.00915133 201.536 0C201.536 0 202.269 0.190687 202.539 0.924496C200.788 -0.185156 197.543 -0.50757 189.441 2.19101C178.764 5.74747 184.098 11.9459 185.716 12.4428C187.335 12.9398 190.314 9.75064 192.993 9.31521C195.673 8.87956 197.122 12.6125 198.144 12.9219C199.166 13.2313 198.585 12.3822 199.654 11.5315C200.724 10.6807 201.339 12.682 201.315 14.0873C201.292 15.4928 203.378 16.825 203.378 16.825C203.378 16.825 203.378 16.825 204.601 14.581C205.824 12.3371 205.492 4.1911 204.323 2.72476C204.22 2.59537 204.117 2.46384 204.012 2.3321Z" fill="#5E0A0A"/>
<path d="M247.438 76.9665C221.532 69.1519 217.411 38.2646 217.411 38.2646C217.411 38.2646 232.16 49.5372 243.669 60.1099C245.272 65.2824 247.118 72.1018 247.438 76.9665Z" fill="#4D65C8"/>
<path d="M241.335 93.2133L244.201 92.2835C245.337 91.2464 251.506 85.8092 258.393 83.5335C263.362 81.8914 270.24 83.7704 270.595 83.6997C271.493 83.521 267.755 84.7709 267.755 84.7709C267.755 84.7709 261.331 84.1075 258.788 84.8675C256.364 85.5919 251.59 89.0735 249.695 90.5013L265.76 85.2901C267.103 84.8545 268.559 85.597 268.994 86.9403L274.937 105.259C275.373 106.603 274.63 108.058 273.287 108.494L248.862 116.417C247.518 116.853 246.063 116.11 245.627 114.767L239.684 96.448C239.249 95.1046 239.991 93.6489 241.335 93.2133Z" fill="#7FC5DD"/>
<path d="M249.273 90.6383L273.698 82.7152C275.042 82.2793 276.497 83.0219 276.933 84.3652L282.875 102.684C283.311 104.028 282.568 105.483 281.225 105.919L256.8 113.842C255.456 114.278 254.001 113.535 253.565 112.192L247.623 93.873C247.187 92.5299 247.93 91.0739 249.273 90.6383Z" fill="#5DABCE"/>
<path d="M256.093 78.8074C254.037 79.7492 253.274 78.7885 253.274 78.7885C253.274 78.7885 241.302 58.7971 240.041 57.1894C238.78 55.5816 216.68 46.0978 216.68 46.0978C216.68 46.0978 207.685 42.6597 207.33 37.2036C207.021 32.4626 209.712 29.5497 212.66 27.7928C216.173 25.6991 220.617 26.0071 223.847 28.5156C231.097 34.1458 245.469 45.4711 247.782 48.5421C252.929 55.3773 258.635 76.8026 258.635 76.8026C258.635 76.8026 257.707 78.0675 256.093 78.8074Z" fill="#4D65C8"/>
<path d="M255.223 86.6561C255.3 86.7845 255.363 86.8619 255.404 86.8643C255.636 86.8775 256.341 86.9058 256.322 86.4159C256.317 86.2733 256.295 86.1662 256.259 86.0415L255.223 86.6561Z" fill="#FF8B61"/>
<path d="M260.961 84.208C260.849 82.0594 257.919 78.1237 257.85 77.7668C257.258 74.7417 254.541 77.9806 254.541 77.9806C254.541 77.9806 253.957 82.8817 254.098 83.6815C254.154 83.9999 254.335 84.5645 254.548 85.1346C254.576 85.1212 254.604 85.1114 254.632 85.0974C255.336 84.7515 256.178 85.1583 256.342 85.9246L256.349 85.9559C256.495 86.5197 256.713 87.4757 257.388 87.441C258.322 87.3929 261.073 86.3562 260.961 84.208Z" fill="#FF8B61"/>
<path d="M189.265 93.9048L177.532 83.7945C177.779 82.6993 177.43 81.5077 176.52 80.7237C176.096 80.3578 175.601 80.1278 175.088 80.0254L174.554 80.6457L174.554 80.6455L176.23 82.0895L175.829 84.1978L175.754 84.2844L173.728 84.9918L172.053 83.5478L171.518 84.168C171.695 84.66 171.996 85.1148 172.42 85.4806C173.33 86.2647 174.56 86.4339 175.607 86.0282L187.34 96.1385C187.093 97.2337 187.442 98.4253 188.352 99.2093C188.776 99.5752 189.271 99.8052 189.784 99.9076L190.319 99.2872L190.318 99.2874L188.642 97.8434L189.055 95.6701L191.143 94.941L192.819 96.385L193.354 95.7648C193.177 95.2728 192.876 94.818 192.452 94.4521C191.542 93.6685 190.312 93.4991 189.265 93.9048Z" fill="#081A3D"/>
<path d="M178.486 88.926C178.486 88.926 179.191 89.5585 181.64 87.0047C184.089 84.4506 179.989 85.496 179.989 85.496C179.989 85.496 177.707 88.5087 178.486 88.926Z" fill="#FF8B61"/>
</svg>
