<svg width="24" height="25" viewBox="0 0 24 25" fill="none" xmlns="http://www.w3.org/2000/svg">
<g clip-path="url(#clip0_271_6232)">
<path d="M23.9344 22.4606L19.4353 17.9409C19.8742 16.8386 19.6548 15.4055 18.6671 14.5236C17.6795 13.5315 16.253 13.311 15.0459 13.8622L17.1309 15.9567L15.5946 17.5L13.3999 15.2953C12.8513 16.5079 13.0707 17.9409 14.0583 19.0433C15.0459 20.0354 16.3627 20.2559 17.4601 19.815L21.9592 24.3346C22.1786 24.5551 22.5078 24.5551 22.6176 24.3346L23.7149 23.2323C24.0441 22.9016 24.0441 22.5709 23.9344 22.4606ZM9.77871 12.3189C12.1929 12.3189 14.1681 10.3346 14.1681 7.90945C14.1681 5.48425 12.1929 3.5 9.77871 3.5C7.36456 3.5 5.38935 5.48425 5.38935 7.90945C5.38935 10.3346 7.36456 12.3189 9.77871 12.3189ZM9.77871 5.70472C10.9858 5.70472 11.9734 6.69685 11.9734 7.90945C11.9734 9.12205 10.9858 10.1142 9.77871 10.1142C8.57163 10.1142 7.58403 9.12205 7.58403 7.90945C7.58403 6.69685 8.57163 5.70472 9.77871 5.70472ZM13.0707 21.1378H1V17.8307C1 14.8543 6.81589 13.4213 9.77871 13.4213C10.3274 13.4213 11.0955 13.5315 11.8636 13.6417C11.4247 14.1929 11.2052 14.8543 10.9858 15.626C10.5468 15.626 10.2176 15.5157 9.77871 15.5157C6.48669 15.5157 3.08494 17.1693 3.08494 17.8307V19.0433H11.4247C11.7539 19.9252 12.4123 20.5866 13.0707 21.1378Z" fill="rgba(0, 0, 0, 1)"/>
</g>
</svg>
