<svg width="75" height="53" viewBox="0 0 75 53" fill="none" xmlns="http://www.w3.org/2000/svg">
<path d="M12.0535 12.3896H3.34814V21.3377H12.0535V12.3896Z" fill="#E7A774"/>
<path d="M21.4285 2.75342H12.0535V12.3898H21.4285V2.75342Z" fill="#E7A774"/>
<path d="M7.36607 0H0V6.88312H7.36607V0Z" fill="#E7A774"/>
<path d="M15.8989 42.7418V16.6304H26.1698C28.1443 16.6304 29.8264 17.0086 31.2162 17.7651C32.606 18.5131 33.6653 19.5543 34.3941 20.8888C35.1314 22.2148 35.5 23.7447 35.5 25.4787C35.5 27.2127 35.1271 28.7426 34.3814 30.0686C33.6356 31.3946 32.5552 32.4273 31.14 33.1668C29.7332 33.9063 28.0299 34.276 26.03 34.276H19.4836V29.8519H25.1402C26.1994 29.8519 27.0723 29.6691 27.7587 29.3036C28.4536 28.9296 28.9705 28.4154 29.3095 27.7609C29.657 27.0979 29.8307 26.3372 29.8307 25.4787C29.8307 24.6117 29.657 23.8552 29.3095 23.2092C28.9705 22.5548 28.4536 22.049 27.7587 21.692C27.0638 21.3265 26.1825 21.1438 25.1147 21.1438H21.403V42.7418H15.8989Z" fill="#2D3250"/>
<path d="M38.462 42.7418V23.1582H43.8771V42.7418H38.462ZM41.1823 20.6338C40.3772 20.6338 39.6866 20.3661 39.1103 19.8306C38.5425 19.2866 38.2586 18.6363 38.2586 17.8799C38.2586 17.1319 38.5425 16.4901 39.1103 15.9547C39.6866 15.4107 40.3772 15.1387 41.1823 15.1387C41.9873 15.1387 42.6738 15.4107 43.2415 15.9547C43.8178 16.4901 44.1059 17.1319 44.1059 17.8799C44.1059 18.6363 43.8178 19.2866 43.2415 19.8306C42.6738 20.3661 41.9873 20.6338 41.1823 20.6338Z" fill="#2D3250"/>
<path d="M52.2288 23.1582L55.8134 30.0049L59.487 23.1582H65.0419L59.3853 32.95L65.1945 42.7418H59.665L55.8134 35.9717L52.0254 42.7418H46.4324L52.2288 32.95L46.6358 23.1582H52.2288Z" fill="#2D3250"/>
<path d="M67.7466 42.7418V23.1582H73.1617V42.7418H67.7466ZM70.4668 20.6338C69.6618 20.6338 68.9711 20.3661 68.3949 19.8306C67.8271 19.2866 67.5432 18.6363 67.5432 17.8799C67.5432 17.1319 67.8271 16.4901 68.3949 15.9547C68.9711 15.4107 69.6618 15.1387 70.4668 15.1387C71.2719 15.1387 71.9583 15.4107 72.5261 15.9547C73.1023 16.4901 73.3905 17.1319 73.3905 17.8799C73.3905 18.6363 73.1023 19.2866 72.5261 19.8306C71.9583 20.3661 71.2719 20.6338 70.4668 20.6338Z" fill="#2D3250"/>
</svg>
