<svg width="44" height="31" viewBox="0 0 44 31" fill="none" xmlns="http://www.w3.org/2000/svg">
<path d="M7.0715 7.24658H1.96436V12.4803H7.0715V7.24658Z" fill="#E7A774"/>
<path d="M12.5715 1.61035H7.07153V7.24672H12.5715V1.61035Z" fill="#E7A774"/>
<path d="M4.32143 0H0V4.02597H4.32143V0Z" fill="#E7A774"/>
<path d="M9.32739 25.0002V9.7275H15.353C16.5113 9.7275 17.4982 9.94873 18.3135 10.3912C19.1289 10.8287 19.7503 11.4377 20.1779 12.2183C20.6104 12.9938 20.8267 13.8887 20.8267 14.9029C20.8267 15.9171 20.6079 16.812 20.1704 17.5876C19.7329 18.3631 19.0991 18.9672 18.2688 19.3997C17.4435 19.8323 16.4442 20.0485 15.2709 20.0485H11.4304V17.4608H14.7489C15.3704 17.4608 15.8824 17.3539 16.2851 17.1401C16.6928 16.9214 16.9961 16.6206 17.1949 16.2378C17.3988 15.85 17.5007 15.4051 17.5007 14.9029C17.5007 14.3958 17.3988 13.9533 17.1949 13.5755C16.9961 13.1927 16.6928 12.8969 16.2851 12.6881C15.8775 12.4743 15.3604 12.3674 14.734 12.3674H12.5564V25.0002H9.32739Z" fill="white"/>
<path d="M22.5644 25.0002V13.5457H25.7413V25.0002H22.5644ZM24.1603 12.0691C23.688 12.0691 23.2828 11.9125 22.9447 11.5993C22.6116 11.2811 22.4451 10.9008 22.4451 10.4583C22.4451 10.0208 22.6116 9.64546 22.9447 9.33225C23.2828 9.01407 23.688 8.85498 24.1603 8.85498C24.6326 8.85498 25.0353 9.01407 25.3684 9.33225C25.7065 9.64546 25.8755 10.0208 25.8755 10.4583C25.8755 10.9008 25.7065 11.2811 25.3684 11.5993C25.0353 11.9125 24.6326 12.0691 24.1603 12.0691Z" fill="white"/>
<path d="M30.6409 13.5457L32.7439 17.5503L34.8991 13.5457H38.158L34.8394 19.273L38.2475 25.0002H35.0035L32.7439 21.0404L30.5216 25.0002H27.2404L30.6409 19.273L27.3597 13.5457H30.6409Z" fill="white"/>
<path d="M39.7447 25.0002V13.5457H42.9215V25.0002H39.7447ZM41.3406 12.0691C40.8683 12.0691 40.4631 11.9125 40.125 11.5993C39.7919 11.2811 39.6254 10.9008 39.6254 10.4583C39.6254 10.0208 39.7919 9.64546 40.125 9.33225C40.4631 9.01407 40.8683 8.85498 41.3406 8.85498C41.8129 8.85498 42.2156 9.01407 42.5487 9.33225C42.8867 9.64546 43.0558 10.0208 43.0558 10.4583C43.0558 10.9008 42.8867 11.2811 42.5487 11.5993C42.2156 11.9125 41.8129 12.0691 41.3406 12.0691Z" fill="white"/>
</svg>
