<svg width="24" height="25" viewBox="0 0 24 25" fill="none" xmlns="http://www.w3.org/2000/svg">
<path d="M21 13C21 17.9706 16.9706 22 12 22C7.02944 22 3 17.9706 3 13C3 8.02944 7.02944 4 12 4C16.9706 4 21 8.02944 21 13Z" fill="#8F98C7"/>
<path d="M10.6763 15.3151C10.483 15.316 10.2897 15.2464 10.1407 15.1032L8.22389 13.2597C7.92791 12.9734 7.92489 12.5086 8.21785 12.2203C8.51081 11.931 8.98901 11.9281 9.28599 12.2135L10.6652 13.5392L14.0328 10.2189C14.3267 9.92966 14.8049 9.92672 15.1009 10.2121C15.3979 10.4984 15.4009 10.9642 15.108 11.2515L11.2089 15.0964C11.0619 15.2415 10.8696 15.3141 10.6763 15.3151Z" fill="#2D3250"/>
</svg>
