<svg width="24" height="25" viewBox="0 0 24 25" fill="none" xmlns="http://www.w3.org/2000/svg">
<rect x="4" y="3.28564" width="15.4286" height="19.2857" rx="2" fill="#626B7C"/>
<path d="M8.5 9.07129L14.9286 9.07129" stroke="#CED6DF" stroke-linecap="round"/>
<path d="M8.5 12.9287L14.9286 12.9287" stroke="#CED6DF" stroke-linecap="round"/>
<path d="M8.5 16.7856L14.9286 16.7856" stroke="#CED6DF" stroke-linecap="round"/>
<path d="M6.57129 3C6.57129 2.44772 7.019 2 7.57129 2H15.857C16.4093 2 16.857 2.44772 16.857 3V3.13571C16.857 3.21856 16.7898 3.28571 16.707 3.28571H16.0713C15.7951 3.28571 15.5713 3.50957 15.5713 3.78571V4.42143C15.5713 4.50427 15.5041 4.57143 15.4213 4.57143H8.007C7.92416 4.57143 7.857 4.50427 7.857 4.42143V3.78571C7.857 3.50957 7.63315 3.28571 7.357 3.28571H6.72129C6.63845 3.28571 6.57129 3.21856 6.57129 3.13571V3Z" fill="#CED6DF"/>
</svg>
