<svg width="24" height="25" viewBox="0 0 24 25" fill="none" xmlns="http://www.w3.org/2000/svg">
<rect x="4.28571" y="2.28564" width="15.4286" height="19.2857" rx="2" fill="#65AEE5"/>
<path d="M8.78571 8.07153L15.2143 8.07153" stroke="#0E3493" stroke-linecap="round"/>
<path d="M8.78571 11.9285L15.2143 11.9285" stroke="#0E3493" stroke-linecap="round"/>
<path d="M8.78571 15.7856L15.2143 15.7856" stroke="#0E3493" stroke-linecap="round"/>
<path d="M6.85712 2C6.85712 1.44772 7.30483 1 7.85712 1H16.1428C16.6951 1 17.1428 1.44772 17.1428 2V2.13571C17.1428 2.21856 17.0757 2.28571 16.9928 2.28571H16.3571C16.081 2.28571 15.8571 2.50957 15.8571 2.78571V3.42143C15.8571 3.50427 15.79 3.57143 15.7071 3.57143H8.29283C8.20999 3.57143 8.14283 3.50427 8.14283 3.42143V2.78571C8.14283 2.50957 7.91897 2.28571 7.64283 2.28571H7.00712C6.92427 2.28571 6.85712 2.21856 6.85712 2.13571V2Z" fill="#0E3493"/>
</svg>
