<svg width="24" height="25" viewBox="0 0 24 25" fill="none" xmlns="http://www.w3.org/2000/svg">
<path d="M4.33917 6.19268L2.48623 9.69267C1.7584 11.0675 1.39448 11.7549 1.39448 12.5C1.39448 13.2451 1.7584 13.9325 2.48623 15.3073L4.33917 18.8073C5.16255 20.3626 5.57424 21.1402 6.28824 21.5701C7.00223 22 7.88212 22 9.6419 22H13.5934C15.3532 22 16.2331 22 16.9471 21.5701C17.6611 21.1402 18.0727 20.3626 18.8961 18.8073L18.8961 18.8073L20.7491 15.3073C21.4769 13.9325 21.8408 13.2451 21.8408 12.5C21.8408 11.7549 21.4769 11.0675 20.7491 9.69267L18.8961 6.19267L18.8961 6.19266C18.0727 4.6374 17.6611 3.85977 16.9471 3.42988C16.2331 3 15.3532 3 13.5934 3H9.6419C7.88212 3 7.00223 3 6.28824 3.42988C5.57424 3.85977 5.16255 4.6374 4.33917 6.19268Z" fill="#65AEE5"/>
<circle cx="11.5" cy="12.5" r="3.5" fill="#0E3493"/>
</svg>
