<svg width="24" height="25" viewBox="0 0 24 25" fill="none" xmlns="http://www.w3.org/2000/svg">
<path d="M21.25 13.9764C20.429 13.9764 19.761 13.3145 19.761 12.501C19.761 11.6865 20.429 11.0246 21.25 11.0246C21.449 11.0246 21.64 10.9463 21.78 10.8076C21.921 10.6679 22 10.4786 22 10.2815L21.999 7.60415C21.999 5.34102 20.14 3.5 17.856 3.5H6.144C3.86 3.5 2.001 5.34102 2.001 7.60415L2 10.3677C2 10.5648 2.079 10.7541 2.22 10.8938C2.36 11.0325 2.551 11.1108 2.75 11.1108C3.599 11.1108 4.239 11.7083 4.239 12.501C4.239 13.3145 3.571 13.9764 2.75 13.9764C2.336 13.9764 2 14.3093 2 14.7195V17.3949C2 19.658 3.858 21.5 6.143 21.5H17.857C20.142 21.5 22 19.658 22 17.3949V14.7195C22 14.3093 21.664 13.9764 21.25 13.9764Z" fill="#E7A774"/>
<path d="M15.4305 12.0886L14.2515 13.2366L14.5305 14.8596C14.5785 15.1406 14.4655 15.4176 14.2345 15.5836C14.0055 15.7516 13.7065 15.7726 13.4545 15.6386L11.9995 14.8736L10.5415 15.6396C10.4335 15.6966 10.3155 15.7266 10.1985 15.7266C10.0455 15.7266 9.8945 15.6786 9.7645 15.5846C9.5345 15.4176 9.4215 15.1406 9.4695 14.8596L9.7475 13.2366L8.5685 12.0886C8.3645 11.8906 8.2935 11.5996 8.3815 11.3286C8.4705 11.0586 8.7005 10.8666 8.9815 10.8266L10.6075 10.5896L11.3365 9.1126C11.4635 8.8586 11.7175 8.7006 11.9995 8.7006H12.0015C12.2845 8.7016 12.5385 8.8596 12.6635 9.1136L13.3925 10.5896L15.0215 10.8276C15.2995 10.8666 15.5295 11.0586 15.6175 11.3286C15.7065 11.5996 15.6355 11.8906 15.4305 12.0886Z" fill="#2D3250"/>
</svg>
